<svg width="63" height="62" viewBox="0 0 63 62" fill="none" xmlns="http://www.w3.org/2000/svg">
<g clip-path="url(#clip0_1_242)">
<path d="M8.59913e-09 13.5625C8.59913e-09 12.0209 0.622264 10.5425 1.7299 9.45244C2.83754 8.36239 4.33982 7.75 5.90625 7.75H41.3437C42.9102 7.75 44.4125 8.36239 45.5201 9.45244C46.6277 10.5425 47.25 12.0209 47.25 13.5625V19.375H51.2662C52.1512 19.3758 53.0246 19.5722 53.822 19.9498C54.6194 20.3275 55.3204 20.8766 55.8731 21.5566L61.7046 28.7254C62.5436 29.7568 63.0005 31.0389 63 32.3601V40.6875C63 42.2291 62.3777 43.7075 61.2701 44.7976C60.1625 45.8876 58.6602 46.5 57.0937 46.5H55.125C55.125 48.5554 54.2953 50.5267 52.8185 51.9801C51.3416 53.4335 49.3386 54.25 47.25 54.25C45.1614 54.25 43.1584 53.4335 41.6815 51.9801C40.2047 50.5267 39.375 48.5554 39.375 46.5H19.6875C19.6898 47.533 19.4822 48.556 19.0769 49.509C18.6716 50.4619 18.0768 51.3254 17.3276 52.0489C16.5783 52.7723 15.6896 53.3411 14.7137 53.7216C13.7379 54.1022 12.6946 54.2869 11.6451 54.265C10.5957 54.243 9.5613 54.0148 8.60277 53.5938C7.64424 53.1727 6.78091 52.5673 6.06355 51.8132C5.34618 51.0591 4.78925 50.1714 4.42549 49.2024C4.06174 48.2334 3.8985 47.2026 3.94537 46.1706C2.79188 45.7711 1.79283 45.029 1.08614 44.0469C0.37944 43.0647 -6.59608e-05 41.8909 8.59913e-09 40.6875L8.59913e-09 13.5625ZM5.09513 42.4545C5.80703 41.3075 6.80995 40.3625 8.00533 39.7124C9.2007 39.0623 10.5474 38.7295 11.913 38.7467C13.2786 38.7639 14.6162 39.1305 15.7943 39.8105C16.9724 40.4905 17.9504 41.4604 18.6322 42.625H40.4302C41.1229 41.4481 42.1166 40.4701 43.3125 39.7885V13.5625C43.3125 13.0486 43.1051 12.5558 42.7359 12.1925C42.3667 11.8291 41.8659 11.625 41.3437 11.625H5.90625C5.3841 11.625 4.88335 11.8291 4.51413 12.1925C4.14492 12.5558 3.9375 13.0486 3.9375 13.5625V40.6875C3.93719 41.0604 4.04625 41.4255 4.2516 41.739C4.45694 42.0524 4.74983 42.3009 5.09513 42.4545ZM47.25 38.75C48.6323 38.75 49.9903 39.1081 51.1874 39.7884C52.3845 40.4686 53.3786 41.4469 54.0698 42.625H57.0937C57.6159 42.625 58.1167 42.4209 58.4859 42.0575C58.8551 41.6942 59.0625 41.2014 59.0625 40.6875V32.3563C59.0617 31.9166 58.909 31.4902 58.6294 31.1472L52.8019 23.9785C52.6177 23.7516 52.3841 23.5683 52.1183 23.4422C51.8525 23.3161 51.5613 23.2504 51.2662 23.25H47.25V38.75ZM11.8125 42.625C10.7682 42.625 9.76669 43.0333 9.02827 43.76C8.28984 44.4867 7.875 45.4723 7.875 46.5C7.875 47.5277 8.28984 48.5133 9.02827 49.24C9.76669 49.9667 10.7682 50.375 11.8125 50.375C12.8568 50.375 13.8583 49.9667 14.5967 49.24C15.3352 48.5133 15.75 47.5277 15.75 46.5C15.75 45.4723 15.3352 44.4867 14.5967 43.76C13.8583 43.0333 12.8568 42.625 11.8125 42.625ZM47.25 42.625C46.2057 42.625 45.2042 43.0333 44.4658 43.76C43.7273 44.4867 43.3125 45.4723 43.3125 46.5C43.3125 47.5277 43.7273 48.5133 44.4658 49.24C45.2042 49.9667 46.2057 50.375 47.25 50.375C48.2943 50.375 49.2958 49.9667 50.0342 49.24C50.7727 48.5133 51.1875 47.5277 51.1875 46.5C51.1875 45.4723 50.7727 44.4867 50.0342 43.76C49.2958 43.0333 48.2943 42.625 47.25 42.625Z" fill="#E1E1E1"/>
</g>
<defs>
<clipPath id="clip0_1_242">
<rect width="63" height="62" fill="white"/>
</clipPath>
</defs>
</svg>
