<svg width="60" height="60" viewBox="0 0 60 60" fill="none" xmlns="http://www.w3.org/2000/svg">
<path d="M55.2782 16.17L36.5282 5.8575C36.2513 5.70519 35.9404 5.62532 35.6244 5.62532C35.3084 5.62532 34.9975 5.70519 34.7207 5.8575L15.9707 16.17C15.6767 16.3319 15.4315 16.5697 15.2608 16.8586C15.0901 17.1475 15 17.4769 15 17.8125C15 18.1481 15.0901 18.4775 15.2608 18.7664C15.4315 19.0553 15.6767 19.2931 15.9707 19.455L33.7494 29.2331V49.3312L28.0569 46.2L26.2494 49.4831L34.7207 54.1425C34.9974 54.2951 35.3083 54.3752 35.6244 54.3752C35.9405 54.3752 36.2514 54.2951 36.5282 54.1425L55.2782 43.83C55.5722 43.6682 55.8175 43.4305 55.9884 43.1415C56.1592 42.8526 56.2494 42.5231 56.2494 42.1875V17.8125C56.2494 17.4769 56.1592 17.1474 55.9884 16.8585C55.8175 16.5695 55.5722 16.3318 55.2782 16.17ZM35.6244 9.64125L50.4838 17.8125L35.6244 25.9837L20.765 17.8125L35.6244 9.64125ZM52.4994 41.0794L37.4994 49.3294V29.2312L52.4994 20.9812V41.0794Z" fill="#F5F5F5"/>
<path d="M18.75 30H3.75V26.25H18.75V30ZM22.5 45H7.5V41.25H22.5V45ZM26.25 37.5H11.25V33.75H26.25V37.5Z" fill="#F5F5F5"/>
</svg>
