<svg width="62" height="63" viewBox="0 0 62 63" fill="none" xmlns="http://www.w3.org/2000/svg">
<path d="M6.96094 18.8605L30.2109 29.3605L31.7868 25.7643L8.53677 15.2643L6.96094 18.8605V18.8605ZM32.9364 56.4374V27.5624H29.0614V56.4374H32.9364ZM31.7868 29.3605L55.0368 18.8605L53.4609 15.2643L30.2109 25.7643L31.7868 29.3605V29.3605Z" fill="#E1E1E1"/>
<path d="M7.75 44.9137V18.0862C7.75007 17.7818 7.83698 17.4839 8.0002 17.2286C8.16341 16.9733 8.39595 16.7715 8.66967 16.6477L30.3697 6.84596C30.5681 6.75621 30.7828 6.70984 31 6.70984C31.2172 6.70984 31.4319 6.75621 31.6303 6.84596L53.3303 16.6477C53.604 16.7715 53.8366 16.9733 53.9998 17.2286C54.163 17.4839 54.2499 17.7818 54.25 18.0862V44.9137C54.2499 45.2181 54.163 45.516 53.9998 45.7713C53.8366 46.0266 53.604 46.2284 53.3303 46.3522L31.6303 56.154C31.4319 56.2437 31.2172 56.2901 31 56.2901C30.7828 56.2901 30.5681 56.2437 30.3697 56.154L8.66967 46.3522C8.39595 46.2284 8.16341 46.0266 8.0002 45.7713C7.83698 45.516 7.75007 45.2181 7.75 44.9137V44.9137Z" stroke="#E1E1E1" stroke-width="4" stroke-linecap="round" stroke-linejoin="round"/>
<path d="M19.375 11.8125L41.7053 21.8977C41.979 22.0216 42.2116 22.2233 42.3748 22.4786C42.538 22.7339 42.6249 23.0318 42.625 23.3362V32.8125" stroke="#E1E1E1" stroke-width="4" stroke-linecap="round" stroke-linejoin="round"/>
</svg>
