<svg width="71" height="62" viewBox="0 0 71 62" fill="none" xmlns="http://www.w3.org/2000/svg">
<g clip-path="url(#clip0_1_244)">
<path d="M55.925 3.87501H38.878C38.3481 3.87467 37.8396 4.05752 37.4636 4.3836L3.3836 34.1363C2.63756 34.791 2.21875 35.677 2.21875 36.6006C2.21875 37.5242 2.63756 38.4102 3.3836 39.0648L19.6082 53.2328C20.3581 53.8844 21.373 54.2501 22.4309 54.2501C23.4888 54.2501 24.5036 53.8844 25.2535 53.2328L59.3238 23.4922C59.6972 23.1639 59.9066 22.7198 59.9063 22.257V7.36251C59.9088 6.90481 59.8077 6.4512 59.6087 6.02778C59.4096 5.60435 59.1167 5.21949 58.7466 4.89534C58.3766 4.57119 57.9368 4.31417 57.4525 4.13905C56.9683 3.96394 56.4491 3.8742 55.925 3.87501V3.87501Z" stroke="#E1E1E1" stroke-width="5" stroke-linecap="round" stroke-linejoin="round"/>
<path d="M48.8125 17.4375C47.9348 17.4375 47.0769 17.2102 46.3472 16.7844C45.6174 16.3587 45.0487 15.7535 44.7128 15.0454C44.3769 14.3373 44.289 13.5582 44.4603 12.8065C44.6315 12.0549 45.0541 11.3644 45.6747 10.8225C46.2953 10.2805 47.086 9.91148 47.9468 9.76196C48.8076 9.61244 49.6998 9.68918 50.5107 9.98247C51.3215 10.2758 52.0146 10.7724 52.5021 11.4097C52.9897 12.0469 53.25 12.7961 53.25 13.5625C53.25 14.5902 52.7825 15.5758 51.9503 16.3025C51.1181 17.0292 49.9894 17.4375 48.8125 17.4375Z" fill="#E1E1E1"/>
<path d="M31.8945 58.125L68.2266 26.3984C68.4072 26.2393 68.5494 26.0502 68.6447 25.8421C68.74 25.6341 68.7864 25.4115 68.7812 25.1875V9.6875" stroke="#E1E1E1" stroke-width="5" stroke-linecap="round" stroke-linejoin="round"/>
</g>
<defs>
<clipPath id="clip0_1_244">
<rect width="71" height="62" fill="white"/>
</clipPath>
</defs>
</svg>
