<svg width="36" height="35" viewBox="0 0 36 35" fill="none" xmlns="http://www.w3.org/2000/svg">
<g clip-path="url(#clip0_1_376)">
<path fill-rule="evenodd" clip-rule="evenodd" d="M35.175 8.67425C35.424 7.878 35.175 7.29175 33.9825 7.29175H30.045C29.043 7.29175 28.581 7.79779 28.3305 8.35633C28.3305 8.35633 26.328 13.0172 23.4915 16.0447C22.5735 16.9226 22.1565 17.2011 21.6555 17.2011C21.405 17.2011 21.0285 16.9226 21.0285 16.1249V8.67425C21.0285 7.71758 20.7525 7.29175 19.9185 7.29175H13.7265C13.101 7.29175 12.7245 7.73508 12.7245 8.15654C12.7245 9.06216 14.1435 9.27216 14.289 11.8213V17.3601C14.289 18.5749 14.0595 18.7951 13.5585 18.7951C12.2235 18.7951 8.976 14.1124 7.0485 8.75446C6.675 7.71175 6.297 7.29175 5.2905 7.29175H1.35C0.225 7.29175 0 7.79779 0 8.35633C0 9.35091 1.335 14.2917 6.2175 20.8265C9.4725 25.289 14.055 27.7084 18.2295 27.7084C20.733 27.7084 21.042 27.1717 21.042 26.2457V22.8726C21.042 21.7978 21.279 21.5834 22.0725 21.5834C22.6575 21.5834 23.658 21.8634 25.995 24.0145C28.665 26.5651 29.1045 27.7084 30.6075 27.7084H34.545C35.67 27.7084 36.234 27.1717 35.91 26.1101C35.553 25.0542 34.278 23.5215 32.5875 21.703C31.6695 20.6676 30.2925 19.552 29.874 18.9934C29.2905 18.2774 29.457 17.958 29.874 17.3207C29.874 17.3207 34.674 10.8661 35.1735 8.67425H35.175Z" fill="#F5F5F5"/>
</g>
<defs>
<clipPath id="clip0_1_376">
<rect width="36" height="35" fill="white"/>
</clipPath>
</defs>
</svg>
